<svg id="svg" version="1.1" xmlns="http://www.w3.org/2000/svg" xmlns:xlink="http://www.w3.org/1999/xlink" width="400" height="400" viewBox="0 0 400 400"><g id="svgg"><path id="path0" d="M289.000 20.000 C 288.864 20.220,287.784 20.400,286.600 20.400 C 285.416 20.400,284.336 20.580,284.200 20.800 C 284.064 21.020,283.153 21.200,282.176 21.200 C 281.199 21.200,280.400 21.380,280.400 21.600 C 280.400 21.820,279.781 22.000,279.024 22.000 C 278.267 22.000,277.536 22.180,277.400 22.400 C 277.264 22.620,276.623 22.800,275.976 22.800 C 275.329 22.800,274.800 22.980,274.800 23.200 C 274.800 23.420,274.260 23.600,273.600 23.600 C 272.940 23.600,272.400 23.780,272.400 24.000 C 272.400 24.220,271.961 24.400,271.424 24.400 C 270.887 24.400,270.336 24.580,270.200 24.800 C 270.064 25.020,269.603 25.200,269.176 25.200 C 268.749 25.200,268.400 25.380,268.400 25.600 C 268.400 25.820,268.128 26.000,267.795 26.000 C 267.157 26.000,266.563 26.251,264.600 27.352 C 263.940 27.722,262.725 28.331,261.900 28.706 C 261.075 29.082,260.400 29.526,260.400 29.694 C 260.400 29.862,260.040 30.000,259.600 30.000 C 259.160 30.000,258.800 30.180,258.800 30.400 C 258.800 30.620,258.564 30.800,258.275 30.800 C 257.987 30.800,257.364 31.160,256.892 31.600 C 256.420 32.040,255.796 32.400,255.505 32.400 C 255.214 32.400,254.717 32.760,254.400 33.200 C 254.083 33.640,253.620 34.000,253.371 34.000 C 253.122 34.000,252.354 34.540,251.663 35.200 C 250.972 35.860,250.214 36.400,249.977 36.400 C 249.414 36.400,236.400 49.414,236.400 49.977 C 236.400 50.214,235.860 50.972,235.200 51.663 C 234.540 52.354,234.000 53.122,234.000 53.371 C 234.000 53.620,233.640 54.083,233.200 54.400 C 232.760 54.717,232.400 55.214,232.400 55.505 C 232.400 55.796,232.040 56.420,231.600 56.892 C 231.160 57.364,230.800 57.987,230.800 58.275 C 230.800 58.564,230.620 58.800,230.400 58.800 C 230.180 58.800,230.000 59.160,230.000 59.600 C 230.000 60.040,229.862 60.400,229.694 60.400 C 229.526 60.400,229.082 61.075,228.706 61.900 C 228.331 62.725,227.722 63.940,227.352 64.600 C 226.251 66.563,226.000 67.157,226.000 67.795 C 226.000 68.128,225.820 68.400,225.600 68.400 C 225.380 68.400,225.200 68.749,225.200 69.176 C 225.200 69.603,225.020 70.064,224.800 70.200 C 224.580 70.336,224.400 70.887,224.400 71.424 C 224.400 71.961,224.220 72.400,224.000 72.400 C 223.780 72.400,223.600 72.940,223.600 73.600 C 223.600 74.260,223.420 74.800,223.200 74.800 C 222.980 74.800,222.800 75.329,222.800 75.976 C 222.800 76.623,222.620 77.264,222.400 77.400 C 222.180 77.536,222.000 78.267,222.000 79.024 C 222.000 79.781,221.820 80.400,221.600 80.400 C 221.380 80.400,221.200 81.199,221.200 82.176 C 221.200 83.153,221.020 84.064,220.800 84.200 C 220.580 84.336,220.400 85.416,220.400 86.600 C 220.400 87.784,220.220 88.864,220.000 89.000 C 219.749 89.155,219.600 93.263,219.600 100.000 C 219.600 106.737,219.749 110.845,220.000 111.000 C 220.220 111.136,220.400 112.216,220.400 113.400 C 220.400 114.584,220.580 115.664,220.800 115.800 C 221.020 115.936,221.200 116.847,221.200 117.824 C 221.200 118.801,221.380 119.600,221.600 119.600 C 221.820 119.600,222.000 120.219,222.000 120.976 C 222.000 121.733,222.180 122.464,222.400 122.600 C 222.620 122.736,222.800 123.377,222.800 124.024 C 222.800 124.671,222.980 125.200,223.200 125.200 C 223.420 125.200,223.600 125.740,223.600 126.400 C 223.600 127.060,223.780 127.600,224.000 127.600 C 224.220 127.600,224.400 128.039,224.400 128.576 C 224.400 129.113,224.580 129.664,224.800 129.800 C 225.020 129.936,225.200 130.397,225.200 130.824 C 225.200 131.251,225.380 131.600,225.600 131.600 C 225.820 131.600,226.000 131.853,226.000 132.162 C 226.000 132.710,227.118 135.186,228.275 137.200 C 228.591 137.750,228.949 138.515,229.071 138.900 C 229.193 139.285,229.452 139.600,229.647 139.600 C 229.841 139.600,230.000 139.960,230.000 140.400 C 230.000 140.840,230.180 141.200,230.400 141.200 C 230.620 141.200,230.800 141.436,230.800 141.725 C 230.800 142.013,231.160 142.636,231.600 143.108 C 232.040 143.580,232.400 144.204,232.400 144.495 C 232.400 144.786,232.760 145.283,233.200 145.600 C 233.640 145.917,234.000 146.380,234.000 146.629 C 234.000 146.878,234.540 147.646,235.200 148.337 C 235.860 149.028,236.400 149.786,236.400 150.023 C 236.400 150.586,249.414 163.600,249.977 163.600 C 250.214 163.600,250.972 164.140,251.663 164.800 C 252.354 165.460,253.122 166.000,253.371 166.000 C 253.620 166.000,254.083 166.360,254.400 166.800 C 254.717 167.240,255.214 167.600,255.505 167.600 C 255.796 167.600,256.420 167.960,256.892 168.400 C 257.364 168.840,257.987 169.200,258.275 169.200 C 258.564 169.200,258.800 169.380,258.800 169.600 C 258.800 169.820,259.145 170.000,259.567 170.000 C 259.988 170.000,260.393 170.135,260.467 170.300 C 260.655 170.724,265.599 173.200,266.256 173.200 C 266.555 173.200,266.800 173.380,266.800 173.600 C 266.800 173.820,267.160 174.000,267.600 174.000 C 268.040 174.000,268.400 174.180,268.400 174.400 C 268.400 174.620,268.749 174.800,269.176 174.800 C 269.603 174.800,270.064 174.980,270.200 175.200 C 270.336 175.420,270.887 175.600,271.424 175.600 C 271.961 175.600,272.400 175.780,272.400 176.000 C 272.400 176.220,272.940 176.400,273.600 176.400 C 274.260 176.400,274.800 176.580,274.800 176.800 C 274.800 177.020,275.329 177.200,275.976 177.200 C 276.623 177.200,277.264 177.380,277.400 177.600 C 277.536 177.820,278.267 178.000,279.024 178.000 C 279.781 178.000,280.400 178.180,280.400 178.400 C 280.400 178.620,281.199 178.800,282.176 178.800 C 283.153 178.800,284.064 178.980,284.200 179.200 C 284.336 179.420,285.416 179.600,286.600 179.600 C 287.784 179.600,288.864 179.780,289.000 180.000 C 289.336 180.544,310.664 180.544,311.000 180.000 C 311.136 179.780,312.216 179.600,313.400 179.600 C 314.584 179.600,315.664 179.420,315.800 179.200 C 315.936 178.980,316.847 178.800,317.824 178.800 C 318.801 178.800,319.600 178.620,319.600 178.400 C 319.600 178.180,320.219 178.000,320.976 178.000 C 321.733 178.000,322.464 177.820,322.600 177.600 C 322.736 177.380,323.377 177.200,324.024 177.200 C 324.671 177.200,325.200 177.020,325.200 176.800 C 325.200 176.580,325.740 176.400,326.400 176.400 C 327.060 176.400,327.600 176.220,327.600 176.000 C 327.600 175.780,328.039 175.600,328.576 175.600 C 329.113 175.600,329.664 175.420,329.800 175.200 C 329.936 174.980,330.397 174.800,330.824 174.800 C 331.251 174.800,331.600 174.620,331.600 174.400 C 331.600 174.180,331.960 174.000,332.400 174.000 C 332.840 174.000,333.200 173.820,333.200 173.600 C 333.200 173.380,333.445 173.200,333.744 173.200 C 334.401 173.200,339.345 170.724,339.533 170.300 C 339.607 170.135,340.012 170.000,340.433 170.000 C 340.855 170.000,341.200 169.820,341.200 169.600 C 341.200 169.380,341.436 169.200,341.725 169.200 C 342.013 169.200,342.636 168.840,343.108 168.400 C 343.580 167.960,344.204 167.600,344.495 167.600 C 344.786 167.600,345.283 167.240,345.600 166.800 C 345.917 166.360,346.380 166.000,346.629 166.000 C 346.878 166.000,347.646 165.460,348.337 164.800 C 349.028 164.140,349.786 163.600,350.023 163.600 C 350.577 163.600,363.600 150.567,363.600 150.012 C 363.600 149.781,364.140 149.028,364.800 148.337 C 365.460 147.646,366.000 146.878,366.000 146.629 C 366.000 146.380,366.360 145.917,366.800 145.600 C 367.240 145.283,367.600 144.786,367.600 144.495 C 367.600 144.204,367.960 143.580,368.400 143.108 C 368.840 142.636,369.200 142.013,369.200 141.725 C 369.200 141.436,369.380 141.200,369.600 141.200 C 369.820 141.200,370.000 140.855,370.000 140.433 C 370.000 140.012,370.135 139.607,370.300 139.533 C 370.724 139.345,373.200 134.401,373.200 133.744 C 373.200 133.445,373.380 133.200,373.600 133.200 C 373.820 133.200,374.000 132.840,374.000 132.400 C 374.000 131.960,374.180 131.600,374.400 131.600 C 374.620 131.600,374.800 131.251,374.800 130.824 C 374.800 130.397,374.980 129.936,375.200 129.800 C 375.420 129.664,375.600 129.113,375.600 128.576 C 375.600 128.039,375.780 127.600,376.000 127.600 C 376.220 127.600,376.400 127.060,376.400 126.400 C 376.400 125.740,376.580 125.200,376.800 125.200 C 377.020 125.200,377.200 124.671,377.200 124.024 C 377.200 123.377,377.380 122.736,377.600 122.600 C 377.820 122.464,378.000 121.733,378.000 120.976 C 378.000 120.219,378.180 119.600,378.400 119.600 C 378.620 119.600,378.800 118.801,378.800 117.824 C 378.800 116.847,378.980 115.936,379.200 115.800 C 379.420 115.664,379.600 114.584,379.600 113.400 C 379.600 112.216,379.780 111.136,380.000 111.000 C 380.251 110.845,380.400 106.737,380.400 100.000 C 380.400 93.263,380.251 89.155,380.000 89.000 C 379.780 88.864,379.600 87.784,379.600 86.600 C 379.600 85.416,379.420 84.336,379.200 84.200 C 378.980 84.064,378.800 83.153,378.800 82.176 C 378.800 81.199,378.620 80.400,378.400 80.400 C 378.180 80.400,378.000 79.781,378.000 79.024 C 378.000 78.267,377.820 77.536,377.600 77.400 C 377.380 77.264,377.200 76.623,377.200 75.976 C 377.200 75.329,377.020 74.800,376.800 74.800 C 376.580 74.800,376.400 74.260,376.400 73.600 C 376.400 72.940,376.220 72.400,376.000 72.400 C 375.780 72.400,375.600 71.961,375.600 71.424 C 375.600 70.887,375.420 70.336,375.200 70.200 C 374.980 70.064,374.800 69.603,374.800 69.176 C 374.800 68.749,374.620 68.400,374.400 68.400 C 374.180 68.400,374.001 68.175,374.003 67.900 C 374.007 67.267,370.712 60.646,370.304 60.467 C 370.137 60.393,370.000 59.988,370.000 59.567 C 370.000 59.145,369.820 58.800,369.600 58.800 C 369.380 58.800,369.200 58.564,369.200 58.275 C 369.200 57.987,368.840 57.364,368.400 56.892 C 367.960 56.420,367.600 55.796,367.600 55.505 C 367.600 55.214,367.240 54.717,366.800 54.400 C 366.360 54.083,366.000 53.620,366.000 53.371 C 366.000 53.122,365.460 52.354,364.800 51.663 C 364.140 50.972,363.600 50.219,363.600 49.988 C 363.600 49.433,350.577 36.400,350.023 36.400 C 349.786 36.400,349.028 35.860,348.337 35.200 C 347.646 34.540,346.878 34.000,346.629 34.000 C 346.380 34.000,345.917 33.640,345.600 33.200 C 345.283 32.760,344.786 32.400,344.495 32.400 C 344.204 32.400,343.580 32.040,343.108 31.600 C 342.636 31.160,342.013 30.800,341.725 30.800 C 341.436 30.800,341.200 30.620,341.200 30.400 C 341.200 30.180,340.855 30.000,340.433 30.000 C 340.012 30.000,339.607 29.865,339.533 29.700 C 339.345 29.276,334.401 26.800,333.744 26.800 C 333.445 26.800,333.200 26.620,333.200 26.400 C 333.200 26.180,332.840 26.000,332.400 26.000 C 331.960 26.000,331.600 25.820,331.600 25.600 C 331.600 25.380,331.251 25.200,330.824 25.200 C 330.397 25.200,329.936 25.020,329.800 24.800 C 329.664 24.580,329.113 24.400,328.576 24.400 C 328.039 24.400,327.600 24.220,327.600 24.000 C 327.600 23.780,327.060 23.600,326.400 23.600 C 325.740 23.600,325.200 23.420,325.200 23.200 C 325.200 22.980,324.671 22.800,324.024 22.800 C 323.377 22.800,322.736 22.620,322.600 22.400 C 322.464 22.180,321.733 22.000,320.976 22.000 C 320.219 22.000,319.600 21.820,319.600 21.600 C 319.600 21.380,318.801 21.200,317.824 21.200 C 316.847 21.200,315.936 21.020,315.800 20.800 C 315.664 20.580,314.584 20.400,313.400 20.400 C 312.216 20.400,311.136 20.220,311.000 20.000 C 310.664 19.456,289.336 19.456,289.000 20.000 M307.380 61.636 C 307.589 61.836,308.444 62.000,309.280 62.000 C 310.116 62.000,310.800 62.180,310.800 62.400 C 310.800 62.620,311.340 62.800,312.000 62.800 C 312.660 62.800,313.200 62.980,313.200 63.200 C 313.200 63.420,313.560 63.600,314.000 63.600 C 314.440 63.600,314.800 63.780,314.800 64.000 C 314.800 64.220,315.160 64.400,315.600 64.400 C 316.040 64.400,316.400 64.580,316.400 64.800 C 316.400 65.020,316.760 65.200,317.200 65.200 C 317.640 65.200,318.000 65.380,318.000 65.600 C 318.000 65.820,318.360 66.000,318.800 66.000 C 319.240 66.000,319.600 66.180,319.600 66.400 C 319.600 66.620,319.920 66.800,320.312 66.800 C 320.703 66.800,321.283 67.160,321.600 67.600 C 321.917 68.040,322.409 68.400,322.693 68.400 C 323.367 68.400,331.600 76.633,331.600 77.307 C 331.600 77.591,331.960 78.083,332.400 78.400 C 332.840 78.717,333.200 79.297,333.200 79.688 C 333.200 80.080,333.380 80.400,333.600 80.400 C 333.820 80.400,334.000 80.760,334.000 81.200 C 334.000 81.640,334.180 82.000,334.400 82.000 C 334.620 82.000,334.800 82.360,334.800 82.800 C 334.800 83.240,334.980 83.600,335.200 83.600 C 335.420 83.600,335.600 83.960,335.600 84.400 C 335.600 84.840,335.780 85.200,336.000 85.200 C 336.220 85.200,336.400 85.560,336.400 86.000 C 336.400 86.440,336.580 86.800,336.800 86.800 C 337.020 86.800,337.200 87.340,337.200 88.000 C 337.200 88.660,337.380 89.200,337.600 89.200 C 337.820 89.200,338.000 89.884,338.000 90.720 C 338.000 91.556,338.187 92.427,338.416 92.656 C 338.672 92.912,338.832 95.735,338.832 100.000 C 338.832 104.265,338.672 107.088,338.416 107.344 C 338.187 107.573,338.000 108.444,338.000 109.280 C 338.000 110.116,337.820 110.800,337.600 110.800 C 337.380 110.800,337.200 111.340,337.200 112.000 C 337.200 112.660,337.020 113.200,336.800 113.200 C 336.580 113.200,336.400 113.560,336.400 114.000 C 336.400 114.440,336.220 114.800,336.000 114.800 C 335.780 114.800,335.600 115.160,335.600 115.600 C 335.600 116.040,335.420 116.400,335.200 116.400 C 334.980 116.400,334.800 116.760,334.800 117.200 C 334.800 117.640,334.620 118.000,334.400 118.000 C 334.180 118.000,334.000 118.360,334.000 118.800 C 334.000 119.240,333.820 119.600,333.600 119.600 C 333.380 119.600,333.200 119.920,333.200 120.312 C 333.200 120.703,332.840 121.283,332.400 121.600 C 331.960 121.917,331.600 122.409,331.600 122.693 C 331.600 123.367,323.367 131.600,322.693 131.600 C 322.409 131.600,321.917 131.960,321.600 132.400 C 321.283 132.840,320.703 133.200,320.312 133.200 C 319.920 133.200,319.600 133.380,319.600 133.600 C 319.600 133.820,319.240 134.000,318.800 134.000 C 318.360 134.000,318.000 134.180,318.000 134.400 C 318.000 134.620,317.640 134.800,317.200 134.800 C 316.760 134.800,316.400 134.980,316.400 135.200 C 316.400 135.420,316.040 135.600,315.600 135.600 C 315.160 135.600,314.800 135.780,314.800 136.000 C 314.800 136.220,314.440 136.400,314.000 136.400 C 313.560 136.400,313.200 136.580,313.200 136.800 C 313.200 137.020,312.660 137.200,312.000 137.200 C 311.340 137.200,310.800 137.380,310.800 137.600 C 310.800 137.820,310.116 138.000,309.280 138.000 C 308.444 138.000,307.573 138.187,307.344 138.416 C 307.088 138.672,304.265 138.832,300.000 138.832 C 295.735 138.832,292.912 138.672,292.656 138.416 C 292.427 138.187,291.556 138.000,290.720 138.000 C 289.884 138.000,289.200 137.820,289.200 137.600 C 289.200 137.380,288.660 137.200,288.000 137.200 C 287.340 137.200,286.800 137.020,286.800 136.800 C 286.800 136.580,286.440 136.400,286.000 136.400 C 285.560 136.400,285.200 136.220,285.200 136.000 C 285.200 135.780,284.840 135.600,284.400 135.600 C 283.960 135.600,283.600 135.420,283.600 135.200 C 283.600 134.980,283.240 134.800,282.800 134.800 C 282.360 134.800,282.000 134.620,282.000 134.400 C 282.000 134.180,281.640 134.000,281.200 134.000 C 280.760 134.000,280.400 133.820,280.400 133.600 C 280.400 133.380,280.080 133.200,279.688 133.200 C 279.297 133.200,278.717 132.840,278.400 132.400 C 278.083 131.960,277.591 131.600,277.307 131.600 C 276.633 131.600,268.400 123.367,268.400 122.693 C 268.400 122.409,268.040 121.917,267.600 121.600 C 267.160 121.283,266.800 120.703,266.800 120.312 C 266.800 119.920,266.620 119.600,266.400 119.600 C 266.180 119.600,266.000 119.240,266.000 118.800 C 266.000 118.360,265.820 118.000,265.600 118.000 C 265.380 118.000,265.200 117.640,265.200 117.200 C 265.200 116.760,265.020 116.400,264.800 116.400 C 264.580 116.400,264.400 116.040,264.400 115.600 C 264.400 115.160,264.220 114.800,264.000 114.800 C 263.780 114.800,263.600 114.440,263.600 114.000 C 263.600 113.560,263.420 113.200,263.200 113.200 C 262.980 113.200,262.800 112.660,262.800 112.000 C 262.800 111.340,262.620 110.800,262.400 110.800 C 262.180 110.800,262.000 110.116,262.000 109.280 C 262.000 108.444,261.813 107.573,261.584 107.344 C 261.328 107.088,261.168 104.265,261.168 100.000 C 261.168 95.735,261.328 92.912,261.584 92.656 C 261.813 92.427,262.000 91.556,262.000 90.720 C 262.000 89.884,262.180 89.200,262.400 89.200 C 262.620 89.200,262.800 88.660,262.800 88.000 C 262.800 87.340,262.980 86.800,263.200 86.800 C 263.420 86.800,263.600 86.440,263.600 86.000 C 263.600 85.560,263.780 85.200,264.000 85.200 C 264.220 85.200,264.400 84.840,264.400 84.400 C 264.400 83.960,264.580 83.600,264.800 83.600 C 265.020 83.600,265.200 83.240,265.200 82.800 C 265.200 82.360,265.380 82.000,265.600 82.000 C 265.820 82.000,266.000 81.640,266.000 81.200 C 266.000 80.760,266.180 80.400,266.400 80.400 C 266.620 80.400,266.800 80.080,266.800 79.688 C 266.800 79.297,267.160 78.717,267.600 78.400 C 268.040 78.083,268.400 77.591,268.400 77.307 C 268.400 76.633,276.633 68.400,277.307 68.400 C 277.591 68.400,278.083 68.040,278.400 67.600 C 278.717 67.160,279.297 66.800,279.688 66.800 C 280.080 66.800,280.400 66.620,280.400 66.400 C 280.400 66.180,280.760 66.000,281.200 66.000 C 281.640 66.000,282.000 65.820,282.000 65.600 C 282.000 65.380,282.360 65.200,282.800 65.200 C 283.240 65.200,283.600 65.020,283.600 64.800 C 283.600 64.580,283.960 64.400,284.400 64.400 C 284.840 64.400,285.200 64.220,285.200 64.000 C 285.200 63.780,285.560 63.600,286.000 63.600 C 286.440 63.600,286.800 63.420,286.800 63.200 C 286.800 62.980,287.340 62.800,288.000 62.800 C 288.660 62.800,289.200 62.620,289.200 62.400 C 289.200 62.180,289.884 62.000,290.720 62.000 C 291.556 62.000,292.412 61.828,292.622 61.618 C 293.364 60.876,306.605 60.892,307.380 61.636 M89.000 220.000 C 88.864 220.220,87.784 220.400,86.600 220.400 C 85.416 220.400,84.336 220.580,84.200 220.800 C 84.064 221.020,83.153 221.200,82.176 221.200 C 81.199 221.200,80.400 221.380,80.400 221.600 C 80.400 221.820,79.781 222.000,79.024 222.000 C 78.267 222.000,77.536 222.180,77.400 222.400 C 77.264 222.620,76.623 222.800,75.976 222.800 C 75.329 222.800,74.800 222.980,74.800 223.200 C 74.800 223.420,74.260 223.600,73.600 223.600 C 72.940 223.600,72.400 223.780,72.400 224.000 C 72.400 224.220,71.961 224.400,71.424 224.400 C 70.887 224.400,70.336 224.580,70.200 224.800 C 70.064 225.020,69.603 225.200,69.176 225.200 C 68.749 225.200,68.400 225.380,68.400 225.600 C 68.400 225.820,68.128 226.000,67.795 226.000 C 67.157 226.000,66.563 226.251,64.600 227.352 C 63.940 227.722,62.725 228.331,61.900 228.706 C 61.075 229.082,60.400 229.526,60.400 229.694 C 60.400 229.862,60.040 230.000,59.600 230.000 C 59.160 230.000,58.800 230.180,58.800 230.400 C 58.800 230.620,58.564 230.800,58.275 230.800 C 57.987 230.800,57.364 231.160,56.892 231.600 C 56.420 232.040,55.796 232.400,55.505 232.400 C 55.214 232.400,54.717 232.760,54.400 233.200 C 54.083 233.640,53.620 234.000,53.371 234.000 C 53.122 234.000,52.354 234.540,51.663 235.200 C 50.972 235.860,50.214 236.400,49.977 236.400 C 49.414 236.400,36.400 249.414,36.400 249.977 C 36.400 250.214,35.860 250.972,35.200 251.663 C 34.540 252.354,34.000 253.122,34.000 253.371 C 34.000 253.620,33.640 254.083,33.200 254.400 C 32.760 254.717,32.400 255.214,32.400 255.505 C 32.400 255.796,32.040 256.420,31.600 256.892 C 31.160 257.364,30.800 257.987,30.800 258.275 C 30.800 258.564,30.620 258.800,30.400 258.800 C 30.180 258.800,30.000 259.160,30.000 259.600 C 30.000 260.040,29.862 260.400,29.694 260.400 C 29.526 260.400,29.082 261.075,28.706 261.900 C 28.331 262.725,27.722 263.940,27.352 264.600 C 26.251 266.563,26.000 267.157,26.000 267.795 C 26.000 268.128,25.820 268.400,25.600 268.400 C 25.380 268.400,25.200 268.749,25.200 269.176 C 25.200 269.603,25.020 270.064,24.800 270.200 C 24.580 270.336,24.400 270.887,24.400 271.424 C 24.400 271.961,24.220 272.400,24.000 272.400 C 23.780 272.400,23.600 272.940,23.600 273.600 C 23.600 274.260,23.420 274.800,23.200 274.800 C 22.980 274.800,22.800 275.329,22.800 275.976 C 22.800 276.623,22.620 277.264,22.400 277.400 C 22.180 277.536,22.000 278.267,22.000 279.024 C 22.000 279.781,21.820 280.400,21.600 280.400 C 21.380 280.400,21.200 281.199,21.200 282.176 C 21.200 283.153,21.020 284.064,20.800 284.200 C 20.580 284.336,20.400 285.416,20.400 286.600 C 20.400 287.784,20.220 288.864,20.000 289.000 C 19.456 289.336,19.456 310.664,20.000 311.000 C 20.220 311.136,20.400 312.216,20.400 313.400 C 20.400 314.584,20.580 315.664,20.800 315.800 C 21.020 315.936,21.200 316.847,21.200 317.824 C 21.200 318.801,21.380 319.600,21.600 319.600 C 21.820 319.600,22.000 320.219,22.000 320.976 C 22.000 321.733,22.180 322.464,22.400 322.600 C 22.620 322.736,22.800 323.377,22.800 324.024 C 22.800 324.671,22.980 325.200,23.200 325.200 C 23.420 325.200,23.600 325.740,23.600 326.400 C 23.600 327.060,23.780 327.600,24.000 327.600 C 24.220 327.600,24.400 328.039,24.400 328.576 C 24.400 329.113,24.580 329.664,24.800 329.800 C 25.020 329.936,25.200 330.397,25.200 330.824 C 25.200 331.251,25.380 331.600,25.600 331.600 C 25.820 331.600,26.000 331.853,26.000 332.162 C 26.000 332.710,27.118 335.186,28.275 337.200 C 28.591 337.750,28.949 338.515,29.071 338.900 C 29.193 339.285,29.452 339.600,29.647 339.600 C 29.841 339.600,30.000 339.960,30.000 340.400 C 30.000 340.840,30.180 341.200,30.400 341.200 C 30.620 341.200,30.800 341.436,30.800 341.725 C 30.800 342.013,31.160 342.636,31.600 343.108 C 32.040 343.580,32.400 344.204,32.400 344.495 C 32.400 344.786,32.760 345.283,33.200 345.600 C 33.640 345.917,34.000 346.380,34.000 346.629 C 34.000 346.878,34.540 347.646,35.200 348.337 C 35.860 349.028,36.400 349.786,36.400 350.023 C 36.400 350.586,49.414 363.600,49.977 363.600 C 50.214 363.600,50.972 364.140,51.663 364.800 C 52.354 365.460,53.122 366.000,53.371 366.000 C 53.620 366.000,54.083 366.360,54.400 366.800 C 54.717 367.240,55.214 367.600,55.505 367.600 C 55.796 367.600,56.420 367.960,56.892 368.400 C 57.364 368.840,57.987 369.200,58.275 369.200 C 58.564 369.200,58.800 369.380,58.800 369.600 C 58.800 369.820,59.145 370.000,59.567 370.000 C 59.988 370.000,60.393 370.135,60.467 370.300 C 60.655 370.724,65.599 373.200,66.256 373.200 C 66.555 373.200,66.800 373.380,66.800 373.600 C 66.800 373.820,67.160 374.000,67.600 374.000 C 68.040 374.000,68.400 374.180,68.400 374.400 C 68.400 374.620,68.749 374.800,69.176 374.800 C 69.603 374.800,70.064 374.980,70.200 375.200 C 70.336 375.420,70.887 375.600,71.424 375.600 C 71.961 375.600,72.400 375.780,72.400 376.000 C 72.400 376.220,72.940 376.400,73.600 376.400 C 74.260 376.400,74.800 376.580,74.800 376.800 C 74.800 377.020,75.329 377.200,75.976 377.200 C 76.623 377.200,77.264 377.380,77.400 377.600 C 77.536 377.820,78.267 378.000,79.024 378.000 C 79.781 378.000,80.400 378.180,80.400 378.400 C 80.400 378.620,81.199 378.800,82.176 378.800 C 83.153 378.800,84.064 378.980,84.200 379.200 C 84.336 379.420,85.416 379.600,86.600 379.600 C 87.784 379.600,88.864 379.780,89.000 380.000 C 89.155 380.251,93.263 380.400,100.000 380.400 C 106.737 380.400,110.845 380.251,111.000 380.000 C 111.136 379.780,112.216 379.600,113.400 379.600 C 114.584 379.600,115.664 379.420,115.800 379.200 C 115.936 378.980,116.847 378.800,117.824 378.800 C 118.801 378.800,119.600 378.620,119.600 378.400 C 119.600 378.180,120.219 378.000,120.976 378.000 C 121.733 378.000,122.464 377.820,122.600 377.600 C 122.736 377.380,123.377 377.200,124.024 377.200 C 124.671 377.200,125.200 377.020,125.200 376.800 C 125.200 376.580,125.740 376.400,126.400 376.400 C 127.060 376.400,127.600 376.220,127.600 376.000 C 127.600 375.780,128.039 375.600,128.576 375.600 C 129.113 375.600,129.664 375.420,129.800 375.200 C 129.936 374.980,130.397 374.800,130.824 374.800 C 131.251 374.800,131.600 374.620,131.600 374.400 C 131.600 374.180,131.960 374.000,132.400 374.000 C 132.840 374.000,133.200 373.820,133.200 373.600 C 133.200 373.380,133.445 373.200,133.744 373.200 C 134.401 373.200,139.345 370.724,139.533 370.300 C 139.607 370.135,140.012 370.000,140.433 370.000 C 140.855 370.000,141.200 369.820,141.200 369.600 C 141.200 369.380,141.436 369.200,141.725 369.200 C 142.013 369.200,142.636 368.840,143.108 368.400 C 143.580 367.960,144.204 367.600,144.495 367.600 C 144.786 367.600,145.283 367.240,145.600 366.800 C 145.917 366.360,146.380 366.000,146.629 366.000 C 146.878 366.000,147.646 365.460,148.337 364.800 C 149.028 364.140,149.786 363.600,150.023 363.600 C 150.577 363.600,163.600 350.567,163.600 350.012 C 163.600 349.781,164.140 349.028,164.800 348.337 C 165.460 347.646,166.000 346.878,166.000 346.629 C 166.000 346.380,166.360 345.917,166.800 345.600 C 167.240 345.283,167.600 344.786,167.600 344.495 C 167.600 344.204,167.960 343.580,168.400 343.108 C 168.840 342.636,169.200 342.013,169.200 341.725 C 169.200 341.436,169.380 341.200,169.600 341.200 C 169.820 341.200,170.000 340.855,170.000 340.433 C 170.000 340.012,170.135 339.607,170.300 339.533 C 170.724 339.345,173.200 334.401,173.200 333.744 C 173.200 333.445,173.380 333.200,173.600 333.200 C 173.820 333.200,174.000 332.840,174.000 332.400 C 174.000 331.960,174.180 331.600,174.400 331.600 C 174.620 331.600,174.800 331.251,174.800 330.824 C 174.800 330.397,174.980 329.936,175.200 329.800 C 175.420 329.664,175.600 329.113,175.600 328.576 C 175.600 328.039,175.780 327.600,176.000 327.600 C 176.220 327.600,176.400 327.060,176.400 326.400 C 176.400 325.740,176.580 325.200,176.800 325.200 C 177.020 325.200,177.200 324.671,177.200 324.024 C 177.200 323.377,177.380 322.736,177.600 322.600 C 177.820 322.464,178.000 321.733,178.000 320.976 C 178.000 320.219,178.180 319.600,178.400 319.600 C 178.620 319.600,178.800 318.801,178.800 317.824 C 178.800 316.847,178.980 315.936,179.200 315.800 C 179.420 315.664,179.600 314.584,179.600 313.400 C 179.600 312.216,179.780 311.136,180.000 311.000 C 180.251 310.845,180.400 306.737,180.400 300.000 C 180.400 293.263,180.251 289.155,180.000 289.000 C 179.780 288.864,179.600 287.784,179.600 286.600 C 179.600 285.416,179.420 284.336,179.200 284.200 C 178.980 284.064,178.800 283.153,178.800 282.176 C 178.800 281.199,178.620 280.400,178.400 280.400 C 178.180 280.400,178.000 279.781,178.000 279.024 C 178.000 278.267,177.820 277.536,177.600 277.400 C 177.380 277.264,177.200 276.623,177.200 275.976 C 177.200 275.329,177.020 274.800,176.800 274.800 C 176.580 274.800,176.400 274.260,176.400 273.600 C 176.400 272.940,176.220 272.400,176.000 272.400 C 175.780 272.400,175.600 271.961,175.600 271.424 C 175.600 270.887,175.420 270.336,175.200 270.200 C 174.980 270.064,174.800 269.603,174.800 269.176 C 174.800 268.749,174.620 268.400,174.400 268.400 C 174.180 268.400,174.001 268.175,174.003 267.900 C 174.007 267.267,170.712 260.646,170.304 260.467 C 170.137 260.393,170.000 259.988,170.000 259.567 C 170.000 259.145,169.820 258.800,169.600 258.800 C 169.380 258.800,169.200 258.564,169.200 258.275 C 169.200 257.987,168.840 257.364,168.400 256.892 C 167.960 256.420,167.600 255.796,167.600 255.505 C 167.600 255.214,167.240 254.717,166.800 254.400 C 166.360 254.083,166.000 253.620,166.000 253.371 C 166.000 253.122,165.460 252.354,164.800 251.663 C 164.140 250.972,163.600 250.219,163.600 249.988 C 163.600 249.433,150.577 236.400,150.023 236.400 C 149.786 236.400,149.028 235.860,148.337 235.200 C 147.646 234.540,146.878 234.000,146.629 234.000 C 146.380 234.000,145.917 233.640,145.600 233.200 C 145.283 232.760,144.786 232.400,144.495 232.400 C 144.204 232.400,143.580 232.040,143.108 231.600 C 142.636 231.160,142.013 230.800,141.725 230.800 C 141.436 230.800,141.200 230.620,141.200 230.400 C 141.200 230.180,140.855 230.000,140.433 230.000 C 140.012 230.000,139.607 229.865,139.533 229.700 C 139.345 229.276,134.401 226.800,133.744 226.800 C 133.445 226.800,133.200 226.620,133.200 226.400 C 133.200 226.180,132.840 226.000,132.400 226.000 C 131.960 226.000,131.600 225.820,131.600 225.600 C 131.600 225.380,131.251 225.200,130.824 225.200 C 130.397 225.200,129.936 225.020,129.800 224.800 C 129.664 224.580,129.113 224.400,128.576 224.400 C 128.039 224.400,127.600 224.220,127.600 224.000 C 127.600 223.780,127.060 223.600,126.400 223.600 C 125.740 223.600,125.200 223.420,125.200 223.200 C 125.200 222.980,124.671 222.800,124.024 222.800 C 123.377 222.800,122.736 222.620,122.600 222.400 C 122.464 222.180,121.733 222.000,120.976 222.000 C 120.219 222.000,119.600 221.820,119.600 221.600 C 119.600 221.380,118.801 221.200,117.824 221.200 C 116.847 221.200,115.936 221.020,115.800 220.800 C 115.664 220.580,114.584 220.400,113.400 220.400 C 112.216 220.400,111.136 220.220,111.000 220.000 C 110.845 219.749,106.737 219.600,100.000 219.600 C 93.263 219.600,89.155 219.749,89.000 220.000 M107.380 261.636 C 107.589 261.836,108.444 262.000,109.280 262.000 C 110.116 262.000,110.800 262.180,110.800 262.400 C 110.800 262.620,111.340 262.800,112.000 262.800 C 112.660 262.800,113.200 262.980,113.200 263.200 C 113.200 263.420,113.560 263.600,114.000 263.600 C 114.440 263.600,114.800 263.780,114.800 264.000 C 114.800 264.220,115.160 264.400,115.600 264.400 C 116.040 264.400,116.400 264.580,116.400 264.800 C 116.400 265.020,116.760 265.200,117.200 265.200 C 117.640 265.200,118.000 265.380,118.000 265.600 C 118.000 265.820,118.360 266.000,118.800 266.000 C 119.240 266.000,119.600 266.180,119.600 266.400 C 119.600 266.620,119.920 266.800,120.312 266.800 C 120.703 266.800,121.283 267.160,121.600 267.600 C 121.917 268.040,122.409 268.400,122.693 268.400 C 123.367 268.400,131.600 276.633,131.600 277.307 C 131.600 277.591,131.960 278.083,132.400 278.400 C 132.840 278.717,133.200 279.297,133.200 279.688 C 133.200 280.080,133.380 280.400,133.600 280.400 C 133.820 280.400,134.000 280.760,134.000 281.200 C 134.000 281.640,134.180 282.000,134.400 282.000 C 134.620 282.000,134.800 282.360,134.800 282.800 C 134.800 283.240,134.980 283.600,135.200 283.600 C 135.420 283.600,135.600 283.960,135.600 284.400 C 135.600 284.840,135.780 285.200,136.000 285.200 C 136.220 285.200,136.400 285.560,136.400 286.000 C 136.400 286.440,136.580 286.800,136.800 286.800 C 137.020 286.800,137.200 287.340,137.200 288.000 C 137.200 288.660,137.380 289.200,137.600 289.200 C 137.820 289.200,138.000 289.884,138.000 290.720 C 138.000 291.556,138.187 292.427,138.416 292.656 C 138.672 292.912,138.832 295.735,138.832 300.000 C 138.832 304.265,138.672 307.088,138.416 307.344 C 138.187 307.573,138.000 308.444,138.000 309.280 C 138.000 310.116,137.820 310.800,137.600 310.800 C 137.380 310.800,137.200 311.340,137.200 312.000 C 137.200 312.660,137.020 313.200,136.800 313.200 C 136.580 313.200,136.400 313.560,136.400 314.000 C 136.400 314.440,136.220 314.800,136.000 314.800 C 135.780 314.800,135.600 315.160,135.600 315.600 C 135.600 316.040,135.420 316.400,135.200 316.400 C 134.980 316.400,134.800 316.760,134.800 317.200 C 134.800 317.640,134.620 318.000,134.400 318.000 C 134.180 318.000,134.000 318.360,134.000 318.800 C 134.000 319.240,133.820 319.600,133.600 319.600 C 133.380 319.600,133.200 319.920,133.200 320.312 C 133.200 320.703,132.840 321.283,132.400 321.600 C 131.960 321.917,131.600 322.409,131.600 322.693 C 131.600 323.367,123.367 331.600,122.693 331.600 C 122.409 331.600,121.917 331.960,121.600 332.400 C 121.283 332.840,120.703 333.200,120.312 333.200 C 119.920 333.200,119.600 333.380,119.600 333.600 C 119.600 333.820,119.240 334.000,118.800 334.000 C 118.360 334.000,118.000 334.180,118.000 334.400 C 118.000 334.620,117.640 334.800,117.200 334.800 C 116.760 334.800,116.400 334.980,116.400 335.200 C 116.400 335.420,116.040 335.600,115.600 335.600 C 115.160 335.600,114.800 335.780,114.800 336.000 C 114.800 336.220,114.440 336.400,114.000 336.400 C 113.560 336.400,113.200 336.580,113.200 336.800 C 113.200 337.020,112.660 337.200,112.000 337.200 C 111.340 337.200,110.800 337.380,110.800 337.600 C 110.800 337.820,110.116 338.000,109.280 338.000 C 108.444 338.000,107.573 338.187,107.344 338.416 C 107.088 338.672,104.265 338.832,100.000 338.832 C 95.735 338.832,92.912 338.672,92.656 338.416 C 92.427 338.187,91.556 338.000,90.720 338.000 C 89.884 338.000,89.200 337.820,89.200 337.600 C 89.200 337.380,88.660 337.200,88.000 337.200 C 87.340 337.200,86.800 337.020,86.800 336.800 C 86.800 336.580,86.440 336.400,86.000 336.400 C 85.560 336.400,85.200 336.220,85.200 336.000 C 85.200 335.780,84.840 335.600,84.400 335.600 C 83.960 335.600,83.600 335.420,83.600 335.200 C 83.600 334.980,83.240 334.800,82.800 334.800 C 82.360 334.800,82.000 334.620,82.000 334.400 C 82.000 334.180,81.640 334.000,81.200 334.000 C 80.760 334.000,80.400 333.820,80.400 333.600 C 80.400 333.380,80.080 333.200,79.688 333.200 C 79.297 333.200,78.717 332.840,78.400 332.400 C 78.083 331.960,77.591 331.600,77.307 331.600 C 76.633 331.600,68.400 323.367,68.400 322.693 C 68.400 322.409,68.040 321.917,67.600 321.600 C 67.160 321.283,66.800 320.703,66.800 320.312 C 66.800 319.920,66.620 319.600,66.400 319.600 C 66.180 319.600,66.000 319.240,66.000 318.800 C 66.000 318.360,65.820 318.000,65.600 318.000 C 65.380 318.000,65.200 317.640,65.200 317.200 C 65.200 316.760,65.020 316.400,64.800 316.400 C 64.580 316.400,64.400 316.040,64.400 315.600 C 64.400 315.160,64.220 314.800,64.000 314.800 C 63.780 314.800,63.600 314.440,63.600 314.000 C 63.600 313.560,63.420 313.200,63.200 313.200 C 62.980 313.200,62.800 312.660,62.800 312.000 C 62.800 311.340,62.620 310.800,62.400 310.800 C 62.180 310.800,62.000 310.116,62.000 309.280 C 62.000 308.444,61.813 307.573,61.584 307.344 C 61.022 306.782,61.022 293.218,61.584 292.656 C 61.813 292.427,62.000 291.556,62.000 290.720 C 62.000 289.884,62.180 289.200,62.400 289.200 C 62.620 289.200,62.800 288.660,62.800 288.000 C 62.800 287.340,62.980 286.800,63.200 286.800 C 63.420 286.800,63.600 286.440,63.600 286.000 C 63.600 285.560,63.780 285.200,64.000 285.200 C 64.220 285.200,64.400 284.840,64.400 284.400 C 64.400 283.960,64.580 283.600,64.800 283.600 C 65.020 283.600,65.200 283.240,65.200 282.800 C 65.200 282.360,65.380 282.000,65.600 282.000 C 65.820 282.000,66.000 281.640,66.000 281.200 C 66.000 280.760,66.180 280.400,66.400 280.400 C 66.620 280.400,66.800 280.080,66.800 279.688 C 66.800 279.297,67.160 278.717,67.600 278.400 C 68.040 278.083,68.400 277.591,68.400 277.307 C 68.400 276.633,76.633 268.400,77.307 268.400 C 77.591 268.400,78.083 268.040,78.400 267.600 C 78.717 267.160,79.297 266.800,79.688 266.800 C 80.080 266.800,80.400 266.620,80.400 266.400 C 80.400 266.180,80.760 266.000,81.200 266.000 C 81.640 266.000,82.000 265.820,82.000 265.600 C 82.000 265.380,82.360 265.200,82.800 265.200 C 83.240 265.200,83.600 265.020,83.600 264.800 C 83.600 264.580,83.960 264.400,84.400 264.400 C 84.840 264.400,85.200 264.220,85.200 264.000 C 85.200 263.780,85.560 263.600,86.000 263.600 C 86.440 263.600,86.800 263.420,86.800 263.200 C 86.800 262.980,87.340 262.800,88.000 262.800 C 88.660 262.800,89.200 262.620,89.200 262.400 C 89.200 262.180,89.884 262.000,90.720 262.000 C 91.556 262.000,92.412 261.828,92.622 261.618 C 93.364 260.876,106.605 260.892,107.380 261.636 " stroke="none" fill="#fcfcfc" fill-rule="evenodd"></path><path id="path1" d="M194.000 97.000 L 194.000 194.000 97.000 194.000 L 0.000 194.000 0.000 200.400 L 0.000 206.800 97.000 206.800 L 194.000 206.800 194.000 303.400 L 194.000 400.000 200.400 400.000 L 206.800 400.000 206.800 303.400 L 206.800 206.800 303.400 206.800 L 400.000 206.800 400.000 200.400 L 400.000 194.000 303.400 194.000 L 206.800 194.000 206.800 97.000 L 206.800 0.000 200.400 0.000 L 194.000 0.000 194.000 97.000 M88.400 20.000 C 88.400 20.222,87.333 20.400,86.000 20.400 C 84.667 20.400,83.600 20.578,83.600 20.800 C 83.600 21.020,82.801 21.200,81.824 21.200 C 80.847 21.200,79.936 21.380,79.800 21.600 C 79.664 21.820,79.023 22.000,78.376 22.000 C 77.729 22.000,77.200 22.180,77.200 22.400 C 77.200 22.620,76.658 22.800,75.995 22.800 C 74.836 22.800,74.484 22.915,72.505 23.938 C 72.013 24.192,71.248 24.400,70.805 24.400 C 70.362 24.400,70.000 24.580,70.000 24.800 C 70.000 25.020,69.561 25.200,69.024 25.200 C 68.487 25.200,67.936 25.380,67.800 25.600 C 67.664 25.820,67.203 26.000,66.776 26.000 C 66.349 26.000,66.000 26.180,66.000 26.400 C 66.000 26.620,65.640 26.800,65.200 26.800 C 64.760 26.800,64.400 26.980,64.400 27.200 C 64.400 27.420,64.040 27.600,63.600 27.600 C 63.160 27.600,62.800 27.780,62.800 28.000 C 62.800 28.220,62.440 28.400,62.000 28.400 C 61.560 28.400,61.200 28.580,61.200 28.800 C 61.200 29.020,60.964 29.200,60.675 29.200 C 60.387 29.200,59.764 29.560,59.292 30.000 C 58.820 30.440,58.156 30.800,57.817 30.800 C 57.478 30.800,57.200 30.980,57.200 31.200 C 57.200 31.420,56.964 31.600,56.675 31.600 C 56.387 31.600,55.764 31.960,55.292 32.400 C 54.820 32.840,54.273 33.200,54.076 33.200 C 53.879 33.200,53.154 33.740,52.463 34.400 C 51.772 35.060,51.047 35.600,50.852 35.600 C 50.656 35.600,49.800 36.276,48.948 37.102 C 48.097 37.928,46.770 39.051,46.000 39.598 C 44.252 40.839,39.600 45.458,39.600 45.952 C 39.600 46.154,38.700 47.238,37.600 48.361 C 36.500 49.485,35.600 50.585,35.600 50.806 C 35.600 51.027,35.060 51.772,34.400 52.463 C 33.740 53.154,33.200 53.879,33.200 54.076 C 33.200 54.273,32.840 54.820,32.400 55.292 C 31.960 55.764,31.600 56.387,31.600 56.675 C 31.600 56.964,31.420 57.200,31.200 57.200 C 30.980 57.200,30.800 57.478,30.800 57.817 C 30.800 58.156,30.440 58.820,30.000 59.292 C 29.560 59.764,29.200 60.387,29.200 60.675 C 29.200 60.964,29.020 61.200,28.800 61.200 C 28.580 61.200,28.400 61.560,28.400 62.000 C 28.400 62.440,28.220 62.800,28.000 62.800 C 27.780 62.800,27.600 63.160,27.600 63.600 C 27.600 64.040,27.420 64.400,27.200 64.400 C 26.980 64.400,26.800 64.760,26.800 65.200 C 26.800 65.640,26.620 66.000,26.400 66.000 C 26.180 66.000,26.000 66.349,26.000 66.776 C 26.000 67.203,25.820 67.664,25.600 67.800 C 25.380 67.936,25.200 68.487,25.200 69.024 C 25.200 69.561,25.020 70.000,24.800 70.000 C 24.580 70.000,24.400 70.362,24.400 70.805 C 24.400 71.248,24.220 71.968,24.000 72.405 C 23.780 72.842,23.420 73.558,23.200 73.995 C 22.980 74.432,22.800 75.332,22.800 75.995 C 22.800 76.658,22.620 77.200,22.400 77.200 C 22.180 77.200,22.000 77.729,22.000 78.376 C 22.000 79.023,21.820 79.664,21.600 79.800 C 21.380 79.936,21.200 80.847,21.200 81.824 C 21.200 82.801,21.020 83.600,20.800 83.600 C 20.578 83.600,20.400 84.667,20.400 86.000 C 20.400 87.333,20.222 88.400,20.000 88.400 C 19.743 88.400,19.600 92.533,19.600 100.000 C 19.600 107.467,19.743 111.600,20.000 111.600 C 20.222 111.600,20.400 112.667,20.400 114.000 C 20.400 115.333,20.578 116.400,20.800 116.400 C 21.020 116.400,21.200 117.199,21.200 118.176 C 21.200 119.153,21.380 120.064,21.600 120.200 C 21.820 120.336,22.000 120.977,22.000 121.624 C 22.000 122.271,22.180 122.800,22.400 122.800 C 22.620 122.800,22.800 123.342,22.800 124.005 C 22.800 124.668,22.980 125.568,23.200 126.005 C 23.420 126.442,23.780 127.158,24.000 127.595 C 24.220 128.032,24.400 128.752,24.400 129.195 C 24.400 129.638,24.580 130.000,24.800 130.000 C 25.020 130.000,25.200 130.439,25.200 130.976 C 25.200 131.513,25.380 132.064,25.600 132.200 C 25.820 132.336,26.000 132.797,26.000 133.224 C 26.000 133.651,26.180 134.000,26.400 134.000 C 26.620 134.000,26.800 134.360,26.800 134.800 C 26.800 135.240,26.980 135.600,27.200 135.600 C 27.420 135.600,27.600 135.960,27.600 136.400 C 27.600 136.840,27.780 137.200,28.000 137.200 C 28.220 137.200,28.400 137.560,28.400 138.000 C 28.400 138.440,28.580 138.800,28.800 138.800 C 29.020 138.800,29.200 139.036,29.200 139.325 C 29.200 139.613,29.560 140.236,30.000 140.708 C 30.440 141.180,30.800 141.844,30.800 142.183 C 30.800 142.522,30.980 142.800,31.200 142.800 C 31.420 142.800,31.600 143.036,31.600 143.325 C 31.600 143.613,31.960 144.236,32.400 144.708 C 32.840 145.180,33.200 145.727,33.200 145.924 C 33.200 146.121,33.740 146.846,34.400 147.537 C 35.060 148.228,35.600 148.943,35.600 149.126 C 35.600 149.309,36.500 150.422,37.600 151.600 C 38.700 152.778,39.600 153.893,39.600 154.078 C 39.600 154.549,44.307 159.200,46.000 160.402 C 46.770 160.949,48.097 162.072,48.948 162.898 C 49.800 163.724,50.656 164.400,50.852 164.400 C 51.047 164.400,51.772 164.940,52.463 165.600 C 53.154 166.260,53.879 166.800,54.076 166.800 C 54.273 166.800,54.820 167.160,55.292 167.600 C 55.764 168.040,56.387 168.400,56.675 168.400 C 56.964 168.400,57.200 168.580,57.200 168.800 C 57.200 169.020,57.520 169.200,57.912 169.200 C 58.303 169.200,58.883 169.560,59.200 170.000 C 59.517 170.440,60.097 170.800,60.488 170.800 C 60.880 170.800,61.200 170.980,61.200 171.200 C 61.200 171.420,61.560 171.600,62.000 171.600 C 62.440 171.600,62.800 171.780,62.800 172.000 C 62.800 172.220,63.160 172.400,63.600 172.400 C 64.040 172.400,64.400 172.580,64.400 172.800 C 64.400 173.020,64.760 173.200,65.200 173.200 C 65.640 173.200,66.000 173.380,66.000 173.600 C 66.000 173.820,66.349 174.000,66.776 174.000 C 67.203 174.000,67.664 174.180,67.800 174.400 C 67.936 174.620,68.487 174.800,69.024 174.800 C 69.561 174.800,70.000 174.980,70.000 175.200 C 70.000 175.420,70.362 175.600,70.805 175.600 C 71.248 175.600,71.968 175.780,72.405 176.000 C 72.842 176.220,73.558 176.580,73.995 176.800 C 74.432 177.020,75.332 177.200,75.995 177.200 C 76.658 177.200,77.200 177.380,77.200 177.600 C 77.200 177.820,77.729 178.000,78.376 178.000 C 79.023 178.000,79.664 178.180,79.800 178.400 C 79.936 178.620,80.847 178.800,81.824 178.800 C 82.801 178.800,83.600 178.980,83.600 179.200 C 83.600 179.422,84.667 179.600,86.000 179.600 C 87.333 179.600,88.400 179.778,88.400 180.000 C 88.400 180.257,92.533 180.400,100.000 180.400 C 107.467 180.400,111.600 180.257,111.600 180.000 C 111.600 179.778,112.667 179.600,114.000 179.600 C 115.333 179.600,116.400 179.422,116.400 179.200 C 116.400 178.980,117.199 178.800,118.176 178.800 C 119.153 178.800,120.064 178.620,120.200 178.400 C 120.336 178.180,120.977 178.000,121.624 178.000 C 122.271 178.000,122.800 177.820,122.800 177.600 C 122.800 177.380,123.329 177.200,123.976 177.200 C 124.623 177.200,125.264 177.020,125.400 176.800 C 125.536 176.580,126.076 176.400,126.600 176.400 C 127.124 176.400,127.664 176.220,127.800 176.000 C 127.936 175.780,128.487 175.600,129.024 175.600 C 129.561 175.600,130.000 175.420,130.000 175.200 C 130.000 174.980,130.349 174.800,130.776 174.800 C 131.203 174.800,131.664 174.620,131.800 174.400 C 131.936 174.180,132.487 174.000,133.024 174.000 C 133.561 174.000,134.000 173.820,134.000 173.600 C 134.000 173.380,134.360 173.200,134.800 173.200 C 135.240 173.200,135.600 173.020,135.600 172.800 C 135.600 172.580,135.960 172.400,136.400 172.400 C 136.840 172.400,137.200 172.220,137.200 172.000 C 137.200 171.780,137.560 171.600,138.000 171.600 C 138.440 171.600,138.800 171.420,138.800 171.200 C 138.800 170.980,139.036 170.800,139.325 170.800 C 139.613 170.800,140.236 170.440,140.708 170.000 C 141.180 169.560,141.844 169.200,142.183 169.200 C 142.522 169.200,142.800 169.020,142.800 168.800 C 142.800 168.580,143.036 168.400,143.325 168.400 C 143.613 168.400,144.236 168.040,144.708 167.600 C 145.180 167.160,145.727 166.800,145.924 166.800 C 146.121 166.800,146.846 166.260,147.537 165.600 C 148.228 164.940,148.953 164.400,149.148 164.400 C 149.344 164.400,150.200 163.724,151.052 162.898 C 151.903 162.072,153.230 160.949,154.000 160.403 C 155.798 159.127,159.127 155.798,160.403 154.000 C 160.949 153.230,162.072 151.903,162.898 151.052 C 163.724 150.200,164.400 149.344,164.400 149.148 C 164.400 148.953,164.940 148.228,165.600 147.537 C 166.260 146.846,166.800 146.121,166.800 145.924 C 166.800 145.727,167.160 145.180,167.600 144.708 C 168.040 144.236,168.400 143.613,168.400 143.325 C 168.400 143.036,168.580 142.800,168.800 142.800 C 169.020 142.800,169.200 142.522,169.200 142.183 C 169.200 141.844,169.560 141.180,170.000 140.708 C 170.440 140.236,170.800 139.613,170.800 139.325 C 170.800 139.036,170.980 138.800,171.200 138.800 C 171.420 138.800,171.600 138.440,171.600 138.000 C 171.600 137.560,171.780 137.200,172.000 137.200 C 172.220 137.200,172.400 136.840,172.400 136.400 C 172.400 135.960,172.580 135.600,172.800 135.600 C 173.020 135.600,173.200 135.240,173.200 134.800 C 173.200 134.360,173.380 134.000,173.600 134.000 C 173.820 134.000,174.000 133.561,174.000 133.024 C 174.000 132.487,174.180 131.936,174.400 131.800 C 174.620 131.664,174.800 131.203,174.800 130.776 C 174.800 130.349,174.980 130.000,175.200 130.000 C 175.420 130.000,175.600 129.561,175.600 129.024 C 175.600 128.487,175.780 127.936,176.000 127.800 C 176.220 127.664,176.400 127.124,176.400 126.600 C 176.400 126.076,176.580 125.536,176.800 125.400 C 177.020 125.264,177.200 124.623,177.200 123.976 C 177.200 123.329,177.380 122.800,177.600 122.800 C 177.820 122.800,178.000 122.271,178.000 121.624 C 178.000 120.977,178.180 120.336,178.400 120.200 C 178.620 120.064,178.800 119.153,178.800 118.176 C 178.800 117.199,178.980 116.400,179.200 116.400 C 179.422 116.400,179.600 115.333,179.600 114.000 C 179.600 112.667,179.778 111.600,180.000 111.600 C 180.257 111.600,180.400 107.467,180.400 100.000 C 180.400 92.533,180.257 88.400,180.000 88.400 C 179.778 88.400,179.600 87.333,179.600 86.000 C 179.600 84.667,179.422 83.600,179.200 83.600 C 178.980 83.600,178.800 82.801,178.800 81.824 C 178.800 80.847,178.620 79.936,178.400 79.800 C 178.180 79.664,178.000 79.023,178.000 78.376 C 178.000 77.729,177.820 77.200,177.600 77.200 C 177.380 77.200,177.200 76.671,177.200 76.024 C 177.200 75.377,177.020 74.736,176.800 74.600 C 176.580 74.464,176.400 73.924,176.400 73.400 C 176.400 72.876,176.220 72.336,176.000 72.200 C 175.780 72.064,175.600 71.513,175.600 70.976 C 175.600 70.439,175.420 70.000,175.200 70.000 C 174.980 70.000,174.800 69.651,174.800 69.224 C 174.800 68.797,174.620 68.336,174.400 68.200 C 174.180 68.064,174.000 67.513,174.000 66.976 C 174.000 66.439,173.820 66.000,173.600 66.000 C 173.380 66.000,173.200 65.640,173.200 65.200 C 173.200 64.760,173.020 64.400,172.800 64.400 C 172.580 64.400,172.400 64.040,172.400 63.600 C 172.400 63.160,172.220 62.800,172.000 62.800 C 171.780 62.800,171.600 62.440,171.600 62.000 C 171.600 61.560,171.420 61.200,171.200 61.200 C 170.980 61.200,170.800 60.964,170.800 60.675 C 170.800 60.387,170.440 59.764,170.000 59.292 C 169.560 58.820,169.200 58.156,169.200 57.817 C 169.200 57.478,169.020 57.200,168.800 57.200 C 168.580 57.200,168.400 56.964,168.400 56.675 C 168.400 56.387,168.040 55.764,167.600 55.292 C 167.160 54.820,166.800 54.273,166.800 54.076 C 166.800 53.879,166.260 53.154,165.600 52.463 C 164.940 51.772,164.400 51.047,164.400 50.852 C 164.400 50.656,163.724 49.800,162.898 48.948 C 162.072 48.097,160.949 46.770,160.403 46.000 C 159.127 44.202,155.798 40.873,154.000 39.597 C 153.230 39.051,151.903 37.928,151.052 37.102 C 150.200 36.276,149.344 35.600,149.148 35.600 C 148.953 35.600,148.228 35.060,147.537 34.400 C 146.846 33.740,146.121 33.200,145.924 33.200 C 145.727 33.200,145.180 32.840,144.708 32.400 C 144.236 31.960,143.613 31.600,143.325 31.600 C 143.036 31.600,142.800 31.420,142.800 31.200 C 142.800 30.980,142.522 30.800,142.183 30.800 C 141.844 30.800,141.180 30.440,140.708 30.000 C 140.236 29.560,139.613 29.200,139.325 29.200 C 139.036 29.200,138.800 29.020,138.800 28.800 C 138.800 28.580,138.440 28.400,138.000 28.400 C 137.560 28.400,137.200 28.220,137.200 28.000 C 137.200 27.780,136.840 27.600,136.400 27.600 C 135.960 27.600,135.600 27.420,135.600 27.200 C 135.600 26.980,135.240 26.800,134.800 26.800 C 134.360 26.800,134.000 26.620,134.000 26.400 C 134.000 26.180,133.651 26.000,133.224 26.000 C 132.797 26.000,132.336 25.820,132.200 25.600 C 132.064 25.380,131.513 25.200,130.976 25.200 C 130.439 25.200,130.000 25.020,130.000 24.800 C 130.000 24.580,129.561 24.400,129.024 24.400 C 128.487 24.400,127.936 24.220,127.800 24.000 C 127.664 23.780,127.124 23.600,126.600 23.600 C 126.076 23.600,125.536 23.420,125.400 23.200 C 125.264 22.980,124.623 22.800,123.976 22.800 C 123.329 22.800,122.800 22.620,122.800 22.400 C 122.800 22.180,122.271 22.000,121.624 22.000 C 120.977 22.000,120.336 21.820,120.200 21.600 C 120.064 21.380,119.153 21.200,118.176 21.200 C 117.199 21.200,116.400 21.020,116.400 20.800 C 116.400 20.578,115.333 20.400,114.000 20.400 C 112.667 20.400,111.600 20.222,111.600 20.000 C 111.600 19.743,107.467 19.600,100.000 19.600 C 92.533 19.600,88.400 19.743,88.400 20.000 M107.380 61.636 C 107.589 61.836,108.444 62.000,109.280 62.000 C 110.116 62.000,110.800 62.180,110.800 62.400 C 110.800 62.620,111.340 62.800,112.000 62.800 C 112.660 62.800,113.200 62.980,113.200 63.200 C 113.200 63.420,113.560 63.600,114.000 63.600 C 114.440 63.600,114.800 63.780,114.800 64.000 C 114.800 64.220,115.160 64.400,115.600 64.400 C 116.040 64.400,116.400 64.580,116.400 64.800 C 116.400 65.020,116.760 65.200,117.200 65.200 C 117.640 65.200,118.000 65.380,118.000 65.600 C 118.000 65.820,118.360 66.000,118.800 66.000 C 119.240 66.000,119.600 66.180,119.600 66.400 C 119.600 66.620,119.920 66.800,120.312 66.800 C 120.703 66.800,121.283 67.160,121.600 67.600 C 121.917 68.040,122.409 68.400,122.693 68.400 C 123.367 68.400,131.600 76.633,131.600 77.307 C 131.600 77.591,131.960 78.083,132.400 78.400 C 132.840 78.717,133.200 79.297,133.200 79.688 C 133.200 80.080,133.380 80.400,133.600 80.400 C 133.820 80.400,134.000 80.760,134.000 81.200 C 134.000 81.640,134.180 82.000,134.400 82.000 C 134.620 82.000,134.800 82.360,134.800 82.800 C 134.800 83.240,134.980 83.600,135.200 83.600 C 135.420 83.600,135.600 83.960,135.600 84.400 C 135.600 84.840,135.780 85.200,136.000 85.200 C 136.220 85.200,136.400 85.560,136.400 86.000 C 136.400 86.440,136.580 86.800,136.800 86.800 C 137.020 86.800,137.200 87.340,137.200 88.000 C 137.200 88.660,137.380 89.200,137.600 89.200 C 137.820 89.200,138.000 89.884,138.000 90.720 C 138.000 91.556,138.187 92.427,138.416 92.656 C 138.672 92.912,138.832 95.735,138.832 100.000 C 138.832 104.265,138.672 107.088,138.416 107.344 C 138.187 107.573,138.000 108.444,138.000 109.280 C 138.000 110.116,137.820 110.800,137.600 110.800 C 137.380 110.800,137.200 111.340,137.200 112.000 C 137.200 112.660,137.020 113.200,136.800 113.200 C 136.580 113.200,136.400 113.560,136.400 114.000 C 136.400 114.440,136.220 114.800,136.000 114.800 C 135.780 114.800,135.600 115.160,135.600 115.600 C 135.600 116.040,135.420 116.400,135.200 116.400 C 134.980 116.400,134.800 116.760,134.800 117.200 C 134.800 117.640,134.620 118.000,134.400 118.000 C 134.180 118.000,134.000 118.360,134.000 118.800 C 134.000 119.240,133.820 119.600,133.600 119.600 C 133.380 119.600,133.200 119.920,133.200 120.312 C 133.200 120.703,132.840 121.283,132.400 121.600 C 131.960 121.917,131.600 122.409,131.600 122.693 C 131.600 123.367,123.367 131.600,122.693 131.600 C 122.409 131.600,121.917 131.960,121.600 132.400 C 121.283 132.840,120.703 133.200,120.312 133.200 C 119.920 133.200,119.600 133.380,119.600 133.600 C 119.600 133.820,119.240 134.000,118.800 134.000 C 118.360 134.000,118.000 134.180,118.000 134.400 C 118.000 134.620,117.640 134.800,117.200 134.800 C 116.760 134.800,116.400 134.980,116.400 135.200 C 116.400 135.420,116.040 135.600,115.600 135.600 C 115.160 135.600,114.800 135.780,114.800 136.000 C 114.800 136.220,114.440 136.400,114.000 136.400 C 113.560 136.400,113.200 136.580,113.200 136.800 C 113.200 137.020,112.660 137.200,112.000 137.200 C 111.340 137.200,110.800 137.380,110.800 137.600 C 110.800 137.820,110.116 138.000,109.280 138.000 C 108.444 138.000,107.573 138.187,107.344 138.416 C 107.088 138.672,104.265 138.832,100.000 138.832 C 95.735 138.832,92.912 138.672,92.656 138.416 C 92.427 138.187,91.556 138.000,90.720 138.000 C 89.884 138.000,89.200 137.820,89.200 137.600 C 89.200 137.380,88.660 137.200,88.000 137.200 C 87.340 137.200,86.800 137.020,86.800 136.800 C 86.800 136.580,86.440 136.400,86.000 136.400 C 85.560 136.400,85.200 136.220,85.200 136.000 C 85.200 135.780,84.840 135.600,84.400 135.600 C 83.960 135.600,83.600 135.420,83.600 135.200 C 83.600 134.980,83.240 134.800,82.800 134.800 C 82.360 134.800,82.000 134.620,82.000 134.400 C 82.000 134.180,81.640 134.000,81.200 134.000 C 80.760 134.000,80.400 133.820,80.400 133.600 C 80.400 133.380,80.080 133.200,79.688 133.200 C 79.297 133.200,78.717 132.840,78.400 132.400 C 78.083 131.960,77.591 131.600,77.307 131.600 C 76.633 131.600,68.400 123.367,68.400 122.693 C 68.400 122.409,68.040 121.917,67.600 121.600 C 67.160 121.283,66.800 120.703,66.800 120.312 C 66.800 119.920,66.620 119.600,66.400 119.600 C 66.180 119.600,66.000 119.240,66.000 118.800 C 66.000 118.360,65.820 118.000,65.600 118.000 C 65.380 118.000,65.200 117.640,65.200 117.200 C 65.200 116.760,65.020 116.400,64.800 116.400 C 64.580 116.400,64.400 116.040,64.400 115.600 C 64.400 115.160,64.220 114.800,64.000 114.800 C 63.780 114.800,63.600 114.440,63.600 114.000 C 63.600 113.560,63.420 113.200,63.200 113.200 C 62.980 113.200,62.800 112.660,62.800 112.000 C 62.800 111.340,62.620 110.800,62.400 110.800 C 62.180 110.800,62.000 110.116,62.000 109.280 C 62.000 108.444,61.813 107.573,61.584 107.344 C 61.022 106.782,61.022 93.218,61.584 92.656 C 61.813 92.427,62.000 91.556,62.000 90.720 C 62.000 89.884,62.180 89.200,62.400 89.200 C 62.620 89.200,62.800 88.660,62.800 88.000 C 62.800 87.340,62.980 86.800,63.200 86.800 C 63.420 86.800,63.600 86.440,63.600 86.000 C 63.600 85.560,63.780 85.200,64.000 85.200 C 64.220 85.200,64.400 84.840,64.400 84.400 C 64.400 83.960,64.580 83.600,64.800 83.600 C 65.020 83.600,65.200 83.240,65.200 82.800 C 65.200 82.360,65.380 82.000,65.600 82.000 C 65.820 82.000,66.000 81.640,66.000 81.200 C 66.000 80.760,66.180 80.400,66.400 80.400 C 66.620 80.400,66.800 80.080,66.800 79.688 C 66.800 79.297,67.160 78.717,67.600 78.400 C 68.040 78.083,68.400 77.591,68.400 77.307 C 68.400 76.633,76.633 68.400,77.307 68.400 C 77.591 68.400,78.083 68.040,78.400 67.600 C 78.717 67.160,79.297 66.800,79.688 66.800 C 80.080 66.800,80.400 66.620,80.400 66.400 C 80.400 66.180,80.760 66.000,81.200 66.000 C 81.640 66.000,82.000 65.820,82.000 65.600 C 82.000 65.380,82.360 65.200,82.800 65.200 C 83.240 65.200,83.600 65.020,83.600 64.800 C 83.600 64.580,83.960 64.400,84.400 64.400 C 84.840 64.400,85.200 64.220,85.200 64.000 C 85.200 63.780,85.560 63.600,86.000 63.600 C 86.440 63.600,86.800 63.420,86.800 63.200 C 86.800 62.980,87.340 62.800,88.000 62.800 C 88.660 62.800,89.200 62.620,89.200 62.400 C 89.200 62.180,89.884 62.000,90.720 62.000 C 91.556 62.000,92.412 61.828,92.622 61.618 C 93.364 60.876,106.605 60.892,107.380 61.636 M288.400 220.000 C 288.400 220.222,287.333 220.400,286.000 220.400 C 284.667 220.400,283.600 220.578,283.600 220.800 C 283.600 221.020,282.801 221.200,281.824 221.200 C 280.847 221.200,279.936 221.380,279.800 221.600 C 279.664 221.820,279.023 222.000,278.376 222.000 C 277.729 222.000,277.200 222.180,277.200 222.400 C 277.200 222.620,276.658 222.800,275.995 222.800 C 274.836 222.800,274.484 222.915,272.505 223.938 C 272.013 224.192,271.248 224.400,270.805 224.400 C 270.362 224.400,270.000 224.580,270.000 224.800 C 270.000 225.020,269.561 225.200,269.024 225.200 C 268.487 225.200,267.936 225.380,267.800 225.600 C 267.664 225.820,267.203 226.000,266.776 226.000 C 266.349 226.000,266.000 226.180,266.000 226.400 C 266.000 226.620,265.640 226.800,265.200 226.800 C 264.760 226.800,264.400 226.980,264.400 227.200 C 264.400 227.420,264.040 227.600,263.600 227.600 C 263.160 227.600,262.800 227.780,262.800 228.000 C 262.800 228.220,262.440 228.400,262.000 228.400 C 261.560 228.400,261.200 228.580,261.200 228.800 C 261.200 229.020,260.964 229.200,260.675 229.200 C 260.387 229.200,259.764 229.560,259.292 230.000 C 258.820 230.440,258.156 230.800,257.817 230.800 C 257.478 230.800,257.200 230.980,257.200 231.200 C 257.200 231.420,256.964 231.600,256.675 231.600 C 256.387 231.600,255.764 231.960,255.292 232.400 C 254.820 232.840,254.273 233.200,254.076 233.200 C 253.879 233.200,253.154 233.740,252.463 234.400 C 251.772 235.060,251.047 235.600,250.852 235.600 C 250.656 235.600,249.800 236.276,248.948 237.102 C 248.097 237.928,246.770 239.051,246.000 239.598 C 244.252 240.839,239.600 245.458,239.600 245.952 C 239.600 246.154,238.700 247.238,237.600 248.361 C 236.500 249.485,235.600 250.585,235.600 250.806 C 235.600 251.027,235.060 251.772,234.400 252.463 C 233.740 253.154,233.200 253.879,233.200 254.076 C 233.200 254.273,232.840 254.820,232.400 255.292 C 231.960 255.764,231.600 256.387,231.600 256.675 C 231.600 256.964,231.420 257.200,231.200 257.200 C 230.980 257.200,230.800 257.478,230.800 257.817 C 230.800 258.156,230.440 258.820,230.000 259.292 C 229.560 259.764,229.200 260.387,229.200 260.675 C 229.200 260.964,229.020 261.200,228.800 261.200 C 228.580 261.200,228.400 261.560,228.400 262.000 C 228.400 262.440,228.220 262.800,228.000 262.800 C 227.780 262.800,227.600 263.160,227.600 263.600 C 227.600 264.040,227.420 264.400,227.200 264.400 C 226.980 264.400,226.800 264.760,226.800 265.200 C 226.800 265.640,226.620 266.000,226.400 266.000 C 226.180 266.000,226.000 266.349,226.000 266.776 C 226.000 267.203,225.820 267.664,225.600 267.800 C 225.380 267.936,225.200 268.487,225.200 269.024 C 225.200 269.561,225.020 270.000,224.800 270.000 C 224.580 270.000,224.400 270.362,224.400 270.805 C 224.400 271.248,224.220 271.968,224.000 272.405 C 223.780 272.842,223.420 273.558,223.200 273.995 C 222.980 274.432,222.800 275.332,222.800 275.995 C 222.800 276.658,222.620 277.200,222.400 277.200 C 222.180 277.200,222.000 277.729,222.000 278.376 C 222.000 279.023,221.820 279.664,221.600 279.800 C 221.380 279.936,221.200 280.847,221.200 281.824 C 221.200 282.801,221.020 283.600,220.800 283.600 C 220.578 283.600,220.400 284.667,220.400 286.000 C 220.400 287.333,220.222 288.400,220.000 288.400 C 219.743 288.400,219.600 292.533,219.600 300.000 C 219.600 307.467,219.743 311.600,220.000 311.600 C 220.222 311.600,220.400 312.667,220.400 314.000 C 220.400 315.333,220.578 316.400,220.800 316.400 C 221.020 316.400,221.200 317.199,221.200 318.176 C 221.200 319.153,221.380 320.064,221.600 320.200 C 221.820 320.336,222.000 320.977,222.000 321.624 C 222.000 322.271,222.180 322.800,222.400 322.800 C 222.620 322.800,222.800 323.342,222.800 324.005 C 222.800 324.668,222.980 325.568,223.200 326.005 C 223.420 326.442,223.780 327.158,224.000 327.595 C 224.220 328.032,224.400 328.752,224.400 329.195 C 224.400 329.638,224.580 330.000,224.800 330.000 C 225.020 330.000,225.200 330.439,225.200 330.976 C 225.200 331.513,225.380 332.064,225.600 332.200 C 225.820 332.336,226.000 332.797,226.000 333.224 C 226.000 333.651,226.180 334.000,226.400 334.000 C 226.620 334.000,226.800 334.360,226.800 334.800 C 226.800 335.240,226.980 335.600,227.200 335.600 C 227.420 335.600,227.600 335.960,227.600 336.400 C 227.600 336.840,227.780 337.200,228.000 337.200 C 228.220 337.200,228.400 337.560,228.400 338.000 C 228.400 338.440,228.580 338.800,228.800 338.800 C 229.020 338.800,229.200 339.036,229.200 339.325 C 229.200 339.613,229.560 340.236,230.000 340.708 C 230.440 341.180,230.800 341.844,230.800 342.183 C 230.800 342.522,230.980 342.800,231.200 342.800 C 231.420 342.800,231.600 343.036,231.600 343.325 C 231.600 343.613,231.960 344.236,232.400 344.708 C 232.840 345.180,233.200 345.727,233.200 345.924 C 233.200 346.121,233.740 346.846,234.400 347.537 C 235.060 348.228,235.600 348.943,235.600 349.126 C 235.600 349.309,236.500 350.422,237.600 351.600 C 238.700 352.778,239.600 353.893,239.600 354.078 C 239.600 354.549,244.307 359.200,246.000 360.402 C 246.770 360.949,248.097 362.072,248.948 362.898 C 249.800 363.724,250.656 364.400,250.852 364.400 C 251.047 364.400,251.772 364.940,252.463 365.600 C 253.154 366.260,253.879 366.800,254.076 366.800 C 254.273 366.800,254.820 367.160,255.292 367.600 C 255.764 368.040,256.387 368.400,256.675 368.400 C 256.964 368.400,257.200 368.580,257.200 368.800 C 257.200 369.020,257.520 369.200,257.912 369.200 C 258.303 369.200,258.883 369.560,259.200 370.000 C 259.517 370.440,260.097 370.800,260.488 370.800 C 260.880 370.800,261.200 370.980,261.200 371.200 C 261.200 371.420,261.560 371.600,262.000 371.600 C 262.440 371.600,262.800 371.780,262.800 372.000 C 262.800 372.220,263.160 372.400,263.600 372.400 C 264.040 372.400,264.400 372.580,264.400 372.800 C 264.400 373.020,264.760 373.200,265.200 373.200 C 265.640 373.200,266.000 373.380,266.000 373.600 C 266.000 373.820,266.349 374.000,266.776 374.000 C 267.203 374.000,267.664 374.180,267.800 374.400 C 267.936 374.620,268.487 374.800,269.024 374.800 C 269.561 374.800,270.000 374.980,270.000 375.200 C 270.000 375.420,270.362 375.600,270.805 375.600 C 271.248 375.600,271.968 375.780,272.405 376.000 C 272.842 376.220,273.558 376.580,273.995 376.800 C 274.432 377.020,275.332 377.200,275.995 377.200 C 276.658 377.200,277.200 377.380,277.200 377.600 C 277.200 377.820,277.729 378.000,278.376 378.000 C 279.023 378.000,279.664 378.180,279.800 378.400 C 279.936 378.620,280.847 378.800,281.824 378.800 C 282.801 378.800,283.600 378.980,283.600 379.200 C 283.600 379.422,284.667 379.600,286.000 379.600 C 287.333 379.600,288.400 379.778,288.400 380.000 C 288.400 380.257,292.533 380.400,300.000 380.400 C 307.467 380.400,311.600 380.257,311.600 380.000 C 311.600 379.778,312.667 379.600,314.000 379.600 C 315.333 379.600,316.400 379.422,316.400 379.200 C 316.400 378.980,317.199 378.800,318.176 378.800 C 319.153 378.800,320.064 378.620,320.200 378.400 C 320.336 378.180,320.977 378.000,321.624 378.000 C 322.271 378.000,322.800 377.820,322.800 377.600 C 322.800 377.380,323.329 377.200,323.976 377.200 C 324.623 377.200,325.264 377.020,325.400 376.800 C 325.536 376.580,326.076 376.400,326.600 376.400 C 327.124 376.400,327.664 376.220,327.800 376.000 C 327.936 375.780,328.487 375.600,329.024 375.600 C 329.561 375.600,330.000 375.420,330.000 375.200 C 330.000 374.980,330.349 374.800,330.776 374.800 C 331.203 374.800,331.664 374.620,331.800 374.400 C 331.936 374.180,332.487 374.000,333.024 374.000 C 333.561 374.000,334.000 373.820,334.000 373.600 C 334.000 373.380,334.360 373.200,334.800 373.200 C 335.240 373.200,335.600 373.020,335.600 372.800 C 335.600 372.580,335.960 372.400,336.400 372.400 C 336.840 372.400,337.200 372.220,337.200 372.000 C 337.200 371.780,337.560 371.600,338.000 371.600 C 338.440 371.600,338.800 371.420,338.800 371.200 C 338.800 370.980,339.036 370.800,339.325 370.800 C 339.613 370.800,340.236 370.440,340.708 370.000 C 341.180 369.560,341.844 369.200,342.183 369.200 C 342.522 369.200,342.800 369.020,342.800 368.800 C 342.800 368.580,343.036 368.400,343.325 368.400 C 343.613 368.400,344.236 368.040,344.708 367.600 C 345.180 367.160,345.727 366.800,345.924 366.800 C 346.121 366.800,346.846 366.260,347.537 365.600 C 348.228 364.940,348.953 364.400,349.148 364.400 C 349.344 364.400,350.200 363.724,351.052 362.898 C 351.903 362.072,353.230 360.949,354.000 360.403 C 355.798 359.127,359.127 355.798,360.403 354.000 C 360.949 353.230,362.072 351.903,362.898 351.052 C 363.724 350.200,364.400 349.344,364.400 349.148 C 364.400 348.953,364.940 348.228,365.600 347.537 C 366.260 346.846,366.800 346.121,366.800 345.924 C 366.800 345.727,367.160 345.180,367.600 344.708 C 368.040 344.236,368.400 343.613,368.400 343.325 C 368.400 343.036,368.580 342.800,368.800 342.800 C 369.020 342.800,369.200 342.522,369.200 342.183 C 369.200 341.844,369.560 341.180,370.000 340.708 C 370.440 340.236,370.800 339.613,370.800 339.325 C 370.800 339.036,370.980 338.800,371.200 338.800 C 371.420 338.800,371.600 338.440,371.600 338.000 C 371.600 337.560,371.780 337.200,372.000 337.200 C 372.220 337.200,372.400 336.840,372.400 336.400 C 372.400 335.960,372.580 335.600,372.800 335.600 C 373.020 335.600,373.200 335.240,373.200 334.800 C 373.200 334.360,373.380 334.000,373.600 334.000 C 373.820 334.000,374.000 333.561,374.000 333.024 C 374.000 332.487,374.180 331.936,374.400 331.800 C 374.620 331.664,374.800 331.203,374.800 330.776 C 374.800 330.349,374.980 330.000,375.200 330.000 C 375.420 330.000,375.600 329.561,375.600 329.024 C 375.600 328.487,375.780 327.936,376.000 327.800 C 376.220 327.664,376.400 327.124,376.400 326.600 C 376.400 326.076,376.580 325.536,376.800 325.400 C 377.020 325.264,377.200 324.623,377.200 323.976 C 377.200 323.329,377.380 322.800,377.600 322.800 C 377.820 322.800,378.000 322.271,378.000 321.624 C 378.000 320.977,378.180 320.336,378.400 320.200 C 378.620 320.064,378.800 319.153,378.800 318.176 C 378.800 317.199,378.980 316.400,379.200 316.400 C 379.422 316.400,379.600 315.333,379.600 314.000 C 379.600 312.667,379.778 311.600,380.000 311.600 C 380.257 311.600,380.400 307.467,380.400 300.000 C 380.400 292.533,380.257 288.400,380.000 288.400 C 379.778 288.400,379.600 287.333,379.600 286.000 C 379.600 284.667,379.422 283.600,379.200 283.600 C 378.980 283.600,378.800 282.801,378.800 281.824 C 378.800 280.847,378.620 279.936,378.400 279.800 C 378.180 279.664,378.000 279.023,378.000 278.376 C 378.000 277.729,377.820 277.200,377.600 277.200 C 377.380 277.200,377.200 276.671,377.200 276.024 C 377.200 275.377,377.020 274.736,376.800 274.600 C 376.580 274.464,376.400 273.924,376.400 273.400 C 376.400 272.876,376.220 272.336,376.000 272.200 C 375.780 272.064,375.600 271.513,375.600 270.976 C 375.600 270.439,375.420 270.000,375.200 270.000 C 374.980 270.000,374.800 269.651,374.800 269.224 C 374.800 268.797,374.620 268.336,374.400 268.200 C 374.180 268.064,374.000 267.513,374.000 266.976 C 374.000 266.439,373.820 266.000,373.600 266.000 C 373.380 266.000,373.200 265.640,373.200 265.200 C 373.200 264.760,373.020 264.400,372.800 264.400 C 372.580 264.400,372.400 264.040,372.400 263.600 C 372.400 263.160,372.220 262.800,372.000 262.800 C 371.780 262.800,371.600 262.440,371.600 262.000 C 371.600 261.560,371.420 261.200,371.200 261.200 C 370.980 261.200,370.800 260.964,370.800 260.675 C 370.800 260.387,370.440 259.764,370.000 259.292 C 369.560 258.820,369.200 258.156,369.200 257.817 C 369.200 257.478,369.020 257.200,368.800 257.200 C 368.580 257.200,368.400 256.964,368.400 256.675 C 368.400 256.387,368.040 255.764,367.600 255.292 C 367.160 254.820,366.800 254.273,366.800 254.076 C 366.800 253.879,366.260 253.154,365.600 252.463 C 364.940 251.772,364.400 251.047,364.400 250.852 C 364.400 250.656,363.724 249.800,362.898 248.948 C 362.072 248.097,360.949 246.770,360.403 246.000 C 359.127 244.202,355.798 240.873,354.000 239.597 C 353.230 239.051,351.903 237.928,351.052 237.102 C 350.200 236.276,349.344 235.600,349.148 235.600 C 348.953 235.600,348.228 235.060,347.537 234.400 C 346.846 233.740,346.121 233.200,345.924 233.200 C 345.727 233.200,345.180 232.840,344.708 232.400 C 344.236 231.960,343.613 231.600,343.325 231.600 C 343.036 231.600,342.800 231.420,342.800 231.200 C 342.800 230.980,342.522 230.800,342.183 230.800 C 341.844 230.800,341.180 230.440,340.708 230.000 C 340.236 229.560,339.613 229.200,339.325 229.200 C 339.036 229.200,338.800 229.020,338.800 228.800 C 338.800 228.580,338.440 228.400,338.000 228.400 C 337.560 228.400,337.200 228.220,337.200 228.000 C 337.200 227.780,336.840 227.600,336.400 227.600 C 335.960 227.600,335.600 227.420,335.600 227.200 C 335.600 226.980,335.240 226.800,334.800 226.800 C 334.360 226.800,334.000 226.620,334.000 226.400 C 334.000 226.180,333.651 226.000,333.224 226.000 C 332.797 226.000,332.336 225.820,332.200 225.600 C 332.064 225.380,331.513 225.200,330.976 225.200 C 330.439 225.200,330.000 225.020,330.000 224.800 C 330.000 224.580,329.561 224.400,329.024 224.400 C 328.487 224.400,327.936 224.220,327.800 224.000 C 327.664 223.780,327.124 223.600,326.600 223.600 C 326.076 223.600,325.536 223.420,325.400 223.200 C 325.264 222.980,324.623 222.800,323.976 222.800 C 323.329 222.800,322.800 222.620,322.800 222.400 C 322.800 222.180,322.271 222.000,321.624 222.000 C 320.977 222.000,320.336 221.820,320.200 221.600 C 320.064 221.380,319.153 221.200,318.176 221.200 C 317.199 221.200,316.400 221.020,316.400 220.800 C 316.400 220.578,315.333 220.400,314.000 220.400 C 312.667 220.400,311.600 220.222,311.600 220.000 C 311.600 219.743,307.467 219.600,300.000 219.600 C 292.533 219.600,288.400 219.743,288.400 220.000 M307.380 261.636 C 307.589 261.836,308.444 262.000,309.280 262.000 C 310.116 262.000,310.800 262.180,310.800 262.400 C 310.800 262.620,311.340 262.800,312.000 262.800 C 312.660 262.800,313.200 262.980,313.200 263.200 C 313.200 263.420,313.560 263.600,314.000 263.600 C 314.440 263.600,314.800 263.780,314.800 264.000 C 314.800 264.220,315.160 264.400,315.600 264.400 C 316.040 264.400,316.400 264.580,316.400 264.800 C 316.400 265.020,316.760 265.200,317.200 265.200 C 317.640 265.200,318.000 265.380,318.000 265.600 C 318.000 265.820,318.360 266.000,318.800 266.000 C 319.240 266.000,319.600 266.180,319.600 266.400 C 319.600 266.620,319.920 266.800,320.312 266.800 C 320.703 266.800,321.283 267.160,321.600 267.600 C 321.917 268.040,322.409 268.400,322.693 268.400 C 323.367 268.400,331.600 276.633,331.600 277.307 C 331.600 277.591,331.960 278.083,332.400 278.400 C 332.840 278.717,333.200 279.297,333.200 279.688 C 333.200 280.080,333.380 280.400,333.600 280.400 C 333.820 280.400,334.000 280.760,334.000 281.200 C 334.000 281.640,334.180 282.000,334.400 282.000 C 334.620 282.000,334.800 282.360,334.800 282.800 C 334.800 283.240,334.980 283.600,335.200 283.600 C 335.420 283.600,335.600 283.960,335.600 284.400 C 335.600 284.840,335.780 285.200,336.000 285.200 C 336.220 285.200,336.400 285.560,336.400 286.000 C 336.400 286.440,336.580 286.800,336.800 286.800 C 337.020 286.800,337.200 287.340,337.200 288.000 C 337.200 288.660,337.380 289.200,337.600 289.200 C 337.820 289.200,338.000 289.884,338.000 290.720 C 338.000 291.556,338.187 292.427,338.416 292.656 C 338.672 292.912,338.832 295.735,338.832 300.000 C 338.832 304.265,338.672 307.088,338.416 307.344 C 338.187 307.573,338.000 308.444,338.000 309.280 C 338.000 310.116,337.820 310.800,337.600 310.800 C 337.380 310.800,337.200 311.340,337.200 312.000 C 337.200 312.660,337.020 313.200,336.800 313.200 C 336.580 313.200,336.400 313.560,336.400 314.000 C 336.400 314.440,336.220 314.800,336.000 314.800 C 335.780 314.800,335.600 315.160,335.600 315.600 C 335.600 316.040,335.420 316.400,335.200 316.400 C 334.980 316.400,334.800 316.760,334.800 317.200 C 334.800 317.640,334.620 318.000,334.400 318.000 C 334.180 318.000,334.000 318.360,334.000 318.800 C 334.000 319.240,333.820 319.600,333.600 319.600 C 333.380 319.600,333.200 319.920,333.200 320.312 C 333.200 320.703,332.840 321.283,332.400 321.600 C 331.960 321.917,331.600 322.409,331.600 322.693 C 331.600 323.367,323.367 331.600,322.693 331.600 C 322.409 331.600,321.917 331.960,321.600 332.400 C 321.283 332.840,320.703 333.200,320.312 333.200 C 319.920 333.200,319.600 333.380,319.600 333.600 C 319.600 333.820,319.240 334.000,318.800 334.000 C 318.360 334.000,318.000 334.180,318.000 334.400 C 318.000 334.620,317.640 334.800,317.200 334.800 C 316.760 334.800,316.400 334.980,316.400 335.200 C 316.400 335.420,316.040 335.600,315.600 335.600 C 315.160 335.600,314.800 335.780,314.800 336.000 C 314.800 336.220,314.440 336.400,314.000 336.400 C 313.560 336.400,313.200 336.580,313.200 336.800 C 313.200 337.020,312.660 337.200,312.000 337.200 C 311.340 337.200,310.800 337.380,310.800 337.600 C 310.800 337.820,310.116 338.000,309.280 338.000 C 308.444 338.000,307.573 338.187,307.344 338.416 C 307.088 338.672,304.265 338.832,300.000 338.832 C 295.735 338.832,292.912 338.672,292.656 338.416 C 292.427 338.187,291.556 338.000,290.720 338.000 C 289.884 338.000,289.200 337.820,289.200 337.600 C 289.200 337.380,288.660 337.200,288.000 337.200 C 287.340 337.200,286.800 337.020,286.800 336.800 C 286.800 336.580,286.440 336.400,286.000 336.400 C 285.560 336.400,285.200 336.220,285.200 336.000 C 285.200 335.780,284.840 335.600,284.400 335.600 C 283.960 335.600,283.600 335.420,283.600 335.200 C 283.600 334.980,283.240 334.800,282.800 334.800 C 282.360 334.800,282.000 334.620,282.000 334.400 C 282.000 334.180,281.640 334.000,281.200 334.000 C 280.760 334.000,280.400 333.820,280.400 333.600 C 280.400 333.380,280.080 333.200,279.688 333.200 C 279.297 333.200,278.717 332.840,278.400 332.400 C 278.083 331.960,277.591 331.600,277.307 331.600 C 276.633 331.600,268.400 323.367,268.400 322.693 C 268.400 322.409,268.040 321.917,267.600 321.600 C 267.160 321.283,266.800 320.703,266.800 320.312 C 266.800 319.920,266.620 319.600,266.400 319.600 C 266.180 319.600,266.000 319.240,266.000 318.800 C 266.000 318.360,265.820 318.000,265.600 318.000 C 265.380 318.000,265.200 317.640,265.200 317.200 C 265.200 316.760,265.020 316.400,264.800 316.400 C 264.580 316.400,264.400 316.040,264.400 315.600 C 264.400 315.160,264.220 314.800,264.000 314.800 C 263.780 314.800,263.600 314.440,263.600 314.000 C 263.600 313.560,263.420 313.200,263.200 313.200 C 262.980 313.200,262.800 312.660,262.800 312.000 C 262.800 311.340,262.620 310.800,262.400 310.800 C 262.180 310.800,262.000 310.116,262.000 309.280 C 262.000 308.444,261.813 307.573,261.584 307.344 C 261.328 307.088,261.168 304.265,261.168 300.000 C 261.168 295.735,261.328 292.912,261.584 292.656 C 261.813 292.427,262.000 291.556,262.000 290.720 C 262.000 289.884,262.180 289.200,262.400 289.200 C 262.620 289.200,262.800 288.660,262.800 288.000 C 262.800 287.340,262.980 286.800,263.200 286.800 C 263.420 286.800,263.600 286.440,263.600 286.000 C 263.600 285.560,263.780 285.200,264.000 285.200 C 264.220 285.200,264.400 284.840,264.400 284.400 C 264.400 283.960,264.580 283.600,264.800 283.600 C 265.020 283.600,265.200 283.240,265.200 282.800 C 265.200 282.360,265.380 282.000,265.600 282.000 C 265.820 282.000,266.000 281.640,266.000 281.200 C 266.000 280.760,266.180 280.400,266.400 280.400 C 266.620 280.400,266.800 280.080,266.800 279.688 C 266.800 279.297,267.160 278.717,267.600 278.400 C 268.040 278.083,268.400 277.591,268.400 277.307 C 268.400 277.023,270.288 274.903,272.595 272.595 C 274.903 270.288,277.023 268.400,277.307 268.400 C 277.591 268.400,278.083 268.040,278.400 267.600 C 278.717 267.160,279.297 266.800,279.688 266.800 C 280.080 266.800,280.400 266.620,280.400 266.400 C 280.400 266.180,280.760 266.000,281.200 266.000 C 281.640 266.000,282.000 265.820,282.000 265.600 C 282.000 265.380,282.360 265.200,282.800 265.200 C 283.240 265.200,283.600 265.020,283.600 264.800 C 283.600 264.580,283.960 264.400,284.400 264.400 C 284.840 264.400,285.200 264.220,285.200 264.000 C 285.200 263.780,285.560 263.600,286.000 263.600 C 286.440 263.600,286.800 263.420,286.800 263.200 C 286.800 262.980,287.340 262.800,288.000 262.800 C 288.660 262.800,289.200 262.620,289.200 262.400 C 289.200 262.180,289.884 262.000,290.720 262.000 C 291.556 262.000,292.412 261.828,292.622 261.618 C 293.364 260.876,306.605 260.892,307.380 261.636 " stroke="none" fill="#040404" fill-rule="evenodd"></path><path id="path2" d="" stroke="none" fill="#c010080" fill-rule="evenodd"></path><path id="path3" d="" stroke="none" fill="#408480" fill-rule="evenodd"></path><path id="path4" d="" stroke="none" fill="#400484" fill-rule="evenodd"></path></g></svg>